<svg width="838" height="670" viewBox="0 0 838 670" fill="none" xmlns="http://www.w3.org/2000/svg">
<path d="M556.955 417.635C556.389 416.658 556.045 415.569 555.945 414.445C555.846 413.321 555.994 412.188 556.38 411.127C556.765 410.066 557.379 409.103 558.177 408.305C558.975 407.507 559.939 406.893 561 406.508L560.602 379.072L572.618 386.748L571.154 411.625C571.683 413.45 571.525 415.406 570.708 417.122C569.892 418.839 568.474 420.196 566.724 420.936C564.974 421.677 563.013 421.75 561.212 421.142C559.412 420.534 557.897 419.286 556.955 417.635Z" fill="#D6AA8D"/>
<path d="M542.474 268.679C538.912 269.309 535.679 271.153 533.324 273.899C530.969 276.644 529.639 280.121 529.56 283.737C529.386 291.767 532.065 294.761 535.852 295.843C542.852 297.843 554 338.291 554 338.291C554 338.291 555.183 376.017 557.092 374.154C559 372.291 556.84 376.638 557.42 377.965C558 379.291 554.671 381.278 557.836 382.784C561 384.291 559 396.291 559 396.291L573 395.291C573 395.291 570.675 385.515 573.838 384.903C577 384.291 575.563 381.509 574.282 379.4C573 377.291 576.549 374.285 574.774 373.288C573 372.291 578 333.291 578 333.291L558.451 275.771C556.797 273.133 554.392 271.049 551.546 269.785C548.699 268.522 545.541 268.136 542.474 268.679Z" fill="#55198B"/>
<path d="M500 270.943L510.071 253.291H523.677L533.882 271.943L500 270.943Z" fill="#55198B"/>
<path d="M472.911 112.206C464.864 85.2516 442.131 67.655 414.66 63.7948C414.358 63.7522 414.071 63.8084 413.77 63.789C413.381 63.6702 412.984 63.5788 412.583 63.5155C374.805 58.633 333.565 67.3775 300.742 87.9143C269.28 107.6 233.129 118.707 196.016 118.461C194.864 118.453 193.707 118.478 192.545 118.536C163.984 119.961 138.779 140.751 131.058 168.096C130.044 171.684 131.81 174.89 134.65 176.923C139.639 180.496 143.047 183.001 149.186 184.301C160.139 186.622 171.13 188.756 182.158 190.703V146.774C182.163 142.615 183.817 138.628 186.758 135.687C189.699 132.746 193.686 131.092 197.845 131.087H413.314C417.472 131.092 421.459 132.746 424.4 135.687C427.341 138.628 428.995 142.615 429 146.774V201.481C431.955 200.557 434.84 199.421 437.632 198.083C448.027 192.949 456.907 185.2 463.401 175.596C475.875 157.496 479.17 133.17 472.911 112.206Z" fill="#55198B"/>
<path d="M382.19 369.291H191.713C187.317 369.286 183.103 367.538 179.995 364.43C176.887 361.321 175.139 357.107 175.134 352.712V278.801C151.934 271.699 127.499 269.558 103.417 272.515C103.015 272.579 102.619 272.67 102.23 272.789C101.929 272.808 101.642 272.752 101.34 272.795C73.8693 276.655 51.1355 294.252 43.0886 321.206C36.8297 342.17 40.1245 366.496 52.5991 384.596C59.093 394.2 67.9732 401.949 78.3676 407.083C92.6549 413.965 107.693 414.483 123.287 414.969C170.107 416.43 216.972 414.658 263.548 409.667C286.469 407.209 309.295 403.996 332.026 400.029C343.661 397.993 355.257 395.75 366.814 393.301C372.953 392.001 376.361 389.496 381.35 385.923C384.19 383.89 385.956 380.684 384.942 377.096C384.189 374.439 383.27 371.832 382.19 369.291Z" fill="#55198B"/>
<path d="M399.047 347.364H212.111C208.503 347.36 205.044 345.925 202.493 343.373C199.942 340.822 198.507 337.363 198.502 333.755V160.032C198.507 156.424 199.942 152.965 202.493 150.414C205.044 147.862 208.503 146.427 212.111 146.423H399.047C402.655 146.427 406.114 147.862 408.665 150.414C411.217 152.965 412.652 156.424 412.656 160.032V333.755C412.652 337.363 411.217 340.822 408.665 343.373C406.114 345.925 402.655 347.36 399.047 347.364Z" fill="#E6E6E6"/>
<path d="M359.703 338.185H221.293C217.685 338.18 214.226 336.745 211.675 334.194C209.123 331.643 207.688 328.184 207.684 324.576V169.219C207.688 165.611 209.123 162.152 211.675 159.6C214.226 157.049 217.685 155.614 221.293 155.61H389.868C393.476 155.614 396.935 157.049 399.486 159.6C402.037 162.152 403.472 165.611 403.477 169.219V294.411C403.464 306.016 398.847 317.143 390.641 325.349C382.435 333.555 371.308 338.171 359.703 338.185Z" fill="white"/>
<path d="M306 307C339.689 307 367 279.689 367 246C367 212.311 339.689 185 306 185C272.311 185 245 212.311 245 246C245 279.689 272.311 307 306 307Z" fill="#55198B"/>
<path d="M331.277 243.828L310.921 219.074C310.369 218.403 309.677 217.859 308.894 217.482C308.111 217.104 307.255 216.901 306.386 216.886C305.516 216.872 304.654 217.046 303.859 217.398C303.064 217.75 302.355 218.27 301.781 218.923L280.012 243.677C278.964 244.872 278.432 246.435 278.535 248.022C278.638 249.608 279.366 251.09 280.56 252.14C281.754 253.19 283.317 253.723 284.903 253.622C286.49 253.521 287.972 252.794 289.024 251.602L300.287 238.794V270.909C300.287 272.5 300.919 274.027 302.044 275.152C303.169 276.277 304.695 276.909 306.287 276.909C307.878 276.909 309.404 276.277 310.529 275.152C311.654 274.027 312.287 272.5 312.287 270.909V239.628L322.008 251.45C323.019 252.679 324.477 253.457 326.06 253.611C327.644 253.765 329.225 253.284 330.454 252.273C331.683 251.263 332.46 249.805 332.614 248.221C332.769 246.638 332.288 245.057 331.277 243.828Z" fill="white"/>
<path d="M568.453 618.324L559.404 618.323L555.099 583.416L568.456 583.417L568.453 618.324Z" fill="#D6AA8D"/>
<path d="M568.772 627.764L540.943 627.763V627.411C540.943 624.539 542.084 621.784 544.116 619.752C546.147 617.721 548.902 616.58 551.775 616.58L556.859 612.723L566.344 616.58L568.773 616.58L568.772 627.764Z" fill="#2F2E41"/>
<path d="M500.453 618.324L491.404 618.323L487.099 583.416L500.456 583.417L500.453 618.324Z" fill="#D6AA8D"/>
<path d="M500.772 627.764L472.943 627.763V627.411C472.943 624.539 474.084 621.784 476.116 619.752C478.147 617.721 480.902 616.58 483.775 616.58L488.859 612.723L498.344 616.58L500.773 616.58L500.772 627.764Z" fill="#2F2E41"/>
<path d="M571.339 589.434C574.641 587.276 572.728 587.416 572.728 587.416C572.728 587.416 565.345 527.556 559.728 509.416L553.228 421.079C553.228 421.079 552.815 422.842 553.228 418.559C553.641 414.276 556.641 417.276 553.641 414.276C550.641 411.276 548.641 409.747 550.641 407.512C552.641 405.276 558.158 400.753 554.899 398.014C551.641 395.276 545.228 377.416 545.228 377.416L482.728 377.916L485.228 377.416C485.228 377.416 477.426 374.521 481 378.291C484.574 382.061 479 391.291 477 400.291C475.344 407.745 470.426 409.723 477 411.291C483.574 412.859 477.625 417.302 477.625 417.302C477.625 417.302 467.728 464.416 475.228 495.416C475.228 495.416 480.402 572.088 483.021 578.682C485.641 585.276 486.641 581.276 485.641 585.276C484.641 589.276 482.641 582.276 484.641 589.276C485.732 592.932 486.596 596.653 487.228 600.416L500.79 599.416C500.79 599.416 503.94 589.489 500.79 586.882C497.641 584.276 499.815 591.882 503.228 586.079C506.641 580.276 502.641 582.276 501.641 574.276C500.641 566.276 509.815 529.008 503.228 506.142L515.401 441.979L534.728 508.416C534.728 508.416 544.979 589.556 548.31 592.416C551.641 595.276 550.296 588.334 551.641 595.276C553 602.291 556.087 600.431 556 601.291C555.069 610.463 571.339 601.416 571.339 601.416C571.18 599.085 571.18 596.747 571.339 594.416C571.641 592.276 568.037 591.591 571.339 589.434Z" fill="#2F2E41"/>
<path d="M489 398.291C485 398.291 474 392.874 476 390.582C478 388.291 478 380.685 478 378.488C478 376.291 487 295.291 487 295.291L486.316 275.459C486.275 274.27 486.474 273.085 486.901 271.975C487.327 270.864 487.973 269.851 488.8 268.996C489.626 268.14 490.616 267.46 491.711 266.995C492.806 266.53 493.984 266.291 495.173 266.291L504 263.291L529 262.291L541.466 266.291C542.703 266.291 543.92 266.608 544.999 267.213C546.078 267.818 546.984 268.689 547.63 269.744C548.276 270.799 548.64 272.001 548.688 273.237C548.736 274.473 548.466 275.701 547.904 276.803C554.519 287.603 557.839 300.098 557.456 312.757C557.17 322.229 552.371 333.795 551.215 344.495C551.113 345.435 551.04 346.367 551 347.291C550.989 347.549 548.942 348.832 550.971 348.062C553 347.291 549.884 350.011 550.942 351.651C552 353.291 554.051 352.286 551.026 354.289C548 356.291 554.658 375.633 554 376.291C552 378.291 548 379.291 551 382.291C554 385.291 557 383.291 553 387.291C549 391.291 537.016 398.291 537.016 398.291L489 398.291Z" fill="#3F3D56"/>
<path d="M515.734 250.679C527.621 250.679 537.257 241.042 537.257 229.156C537.257 217.269 527.621 207.632 515.734 207.632C503.847 207.632 494.211 217.269 494.211 229.156C494.211 241.042 503.847 250.679 515.734 250.679Z" fill="#D6AA8D"/>
<path d="M384.644 295.935C385.676 295.479 386.796 295.254 387.925 295.277C389.053 295.301 390.163 295.571 391.176 296.07C392.189 296.568 393.08 297.283 393.786 298.163C394.493 299.043 394.998 300.067 395.266 301.164L422.583 303.748L413.647 314.859L389.077 310.702C387.205 311.03 385.277 310.66 383.66 309.662C382.043 308.664 380.848 307.108 380.301 305.287C379.755 303.467 379.895 301.51 380.695 299.786C381.496 298.062 382.901 296.692 384.644 295.935Z" fill="#DCAA8D"/>
<path d="M514.164 279.913C513.534 276.351 511.69 273.118 508.944 270.763C506.198 268.408 502.722 267.078 499.106 266.999C491.076 266.825 488.082 269.504 487 273.291C485 280.291 452.803 304.897 452.803 304.897L425.152 301.905C423.489 301.365 424.278 299.85 418.026 301.134C414.947 299.117 412.956 299.459 411.241 300.399L401 299.291L402 315.291C402 315.291 412.963 312.683 415 317.291C417.037 321.899 416.57 322.561 421 319.291C425.43 316.021 425 319.291 425 319.291L457 327.291L507.071 295.89C509.71 294.236 511.794 291.831 513.058 288.985C514.321 286.138 514.706 282.98 514.164 279.913Z" fill="#55198B"/>
<path d="M524.09 248.371L525.5 248.821C521.09 249.191 513.23 251.651 514 250.291C514.77 248.931 511.86 243.801 513.28 243.151C514.756 242.633 516.073 241.741 517.1 240.561C518 239.301 517.98 237.221 516.63 236.451C515.32 235.691 513.7 236.511 512.4 237.281C511.09 238.041 508.67 226.861 509.29 223.371C505.64 221.371 501.22 225.201 497.12 224.451C494.61 223.991 492.8 221.931 491.66 219.591C493.522 217.824 494.909 215.616 495.69 213.171C493.949 214.048 492.09 214.664 490.17 215.001C489.826 213.185 489.873 211.317 490.31 209.521C490.645 208.087 491.328 206.759 492.3 205.653C493.272 204.547 494.501 203.698 495.88 203.181C497.279 202.717 498.794 202.744 500.175 203.256C501.557 203.769 502.722 204.737 503.48 206.001C503.565 204.64 503.215 203.287 502.482 202.137C501.749 200.986 500.67 200.099 499.4 199.601C500.327 199.12 501.352 198.86 502.396 198.841C503.439 198.821 504.474 199.043 505.417 199.49C506.361 199.936 507.189 200.594 507.837 201.413C508.484 202.232 508.934 203.19 509.15 204.211C513.666 201.948 518.848 201.394 523.74 202.651C528.58 203.921 535 209.291 535 209.291C545.92 211.701 545.4 253.221 524.09 248.371Z" fill="#2F2E41"/>
<path d="M638.116 619.183C638.366 619.194 638.612 619.129 638.823 618.995C639.034 618.862 639.198 618.667 639.295 618.437C639.391 618.207 639.414 617.953 639.361 617.709C639.308 617.465 639.181 617.244 638.998 617.074L638.915 616.743L638.948 616.664C639.199 616.071 639.619 615.565 640.157 615.211C640.694 614.856 641.324 614.668 641.968 614.67C642.612 614.673 643.241 614.865 643.775 615.224C644.31 615.583 644.727 616.091 644.973 616.686C645.959 619.059 647.214 621.437 647.523 623.947C647.659 625.056 647.601 626.181 647.353 627.27C649.668 622.221 650.87 616.733 650.877 611.179C650.878 609.785 650.8 608.392 650.645 607.007C650.517 605.871 650.339 604.744 650.112 603.624C648.871 597.551 646.208 591.858 642.34 587.014C640.468 585.992 638.954 584.421 638.002 582.513C637.657 581.827 637.413 581.095 637.278 580.339C637.689 579.257 637.904 578.11 637.915 576.953C638.21 576.506 638.736 576.284 639.058 575.848C640.656 573.681 642.859 574.06 644.009 577.005C646.465 578.244 646.488 580.3 644.981 582.277C644.023 583.535 643.891 585.237 643.05 586.584C643.136 586.695 643.226 586.802 643.313 586.913C644.895 588.948 646.274 591.132 647.43 593.436C647.149 590.855 647.484 588.245 648.409 585.819C649.346 583.559 651.102 581.655 652.649 579.701C653.058 579.176 653.614 578.784 654.245 578.574C654.877 578.365 655.557 578.348 656.198 578.525C656.84 578.702 657.415 579.065 657.85 579.568C658.285 580.072 658.561 580.693 658.644 581.353L658.653 581.44C658.423 581.569 658.198 581.707 657.978 581.852C657.702 582.037 657.488 582.301 657.364 582.609C657.24 582.918 657.212 583.257 657.284 583.581C657.356 583.906 657.524 584.201 657.767 584.428C658.009 584.656 658.315 584.804 658.644 584.855L658.677 584.86C658.595 585.688 658.451 586.509 658.245 587.315C660.229 594.988 655.945 597.783 649.828 597.909C649.693 597.978 649.562 598.047 649.427 598.113C650.588 601.404 651.317 604.833 651.594 608.312C651.751 610.365 651.742 612.427 651.566 614.478L651.577 614.405C652.02 612.124 653.237 610.066 655.021 608.579C657.672 606.401 661.418 605.599 664.277 603.849C664.581 603.654 664.935 603.549 665.296 603.549C665.657 603.548 666.011 603.65 666.316 603.844C666.621 604.037 666.864 604.314 667.017 604.642C667.169 604.969 667.225 605.333 667.178 605.691L667.166 605.768C666.74 605.941 666.325 606.141 665.923 606.366C665.694 606.496 665.469 606.634 665.249 606.779C664.972 606.964 664.758 607.228 664.634 607.536C664.51 607.845 664.482 608.183 664.554 608.508C664.626 608.833 664.795 609.128 665.037 609.355C665.28 609.582 665.585 609.731 665.914 609.782L665.948 609.787L666.017 609.797C665.288 611.537 664.266 613.138 662.994 614.53C661.754 621.229 656.425 621.864 650.725 619.913H650.721C650.096 622.631 649.19 625.277 648.018 627.807H638.358C638.324 627.7 638.293 627.589 638.261 627.481C639.156 627.538 640.053 627.484 640.934 627.322C640.218 626.443 639.501 625.557 638.784 624.677C638.768 624.661 638.753 624.643 638.739 624.625C638.376 624.175 638.009 623.729 637.645 623.279C637.626 621.899 637.784 620.522 638.116 619.183Z" fill="#CACACA"/>
<path d="M316.529 629.179L706.255 629.486C706.57 629.486 706.873 629.36 707.097 629.137C707.32 628.914 707.445 628.611 707.445 628.295C707.445 627.979 707.32 627.677 707.097 627.453C706.873 627.23 706.57 627.104 706.255 627.104L316.529 626.797C316.213 626.797 315.91 626.923 315.687 627.146C315.464 627.369 315.338 627.672 315.338 627.988C315.338 628.304 315.464 628.606 315.687 628.83C315.91 629.053 316.213 629.179 316.529 629.179Z" fill="#CACACA"/>
<path d="M296.618 462.291C293.82 462.291 291.086 461.461 288.759 459.907C286.433 458.353 284.62 456.144 283.549 453.559C282.479 450.974 282.199 448.13 282.744 445.386C283.29 442.642 284.638 440.121 286.616 438.143C288.594 436.165 291.115 434.818 293.859 434.272C296.602 433.726 299.447 434.006 302.031 435.077C304.616 436.147 306.825 437.961 308.38 440.287C309.934 442.613 310.764 445.348 310.764 448.146C310.759 451.896 309.268 455.491 306.616 458.143C303.964 460.795 300.368 462.287 296.618 462.291ZM296.618 436C294.216 436 291.868 436.712 289.871 438.047C287.873 439.381 286.316 441.278 285.397 443.498C284.478 445.717 284.237 448.159 284.706 450.515C285.175 452.871 286.331 455.035 288.03 456.734C289.729 458.432 291.893 459.589 294.249 460.058C296.605 460.526 299.047 460.286 301.266 459.367C303.485 458.447 305.382 456.891 306.717 454.893C308.051 452.896 308.764 450.548 308.764 448.146C308.76 444.925 307.479 441.838 305.202 439.561C302.925 437.284 299.838 436.004 296.618 436Z" fill="#F2F2F2"/>
<path d="M302.156 447.484L297.769 442.149C297.65 442.005 297.501 441.888 297.332 441.806C297.163 441.725 296.979 441.681 296.792 441.678C296.604 441.675 296.419 441.712 296.247 441.788C296.076 441.864 295.923 441.976 295.799 442.117L291.108 447.451C290.884 447.709 290.771 448.045 290.794 448.386C290.816 448.727 290.973 449.045 291.23 449.271C291.487 449.496 291.822 449.611 292.163 449.59C292.504 449.569 292.823 449.414 293.05 449.159L295.477 446.399V453.32C295.477 453.663 295.613 453.992 295.856 454.234C296.098 454.477 296.427 454.613 296.77 454.613C297.113 454.613 297.442 454.477 297.685 454.234C297.927 453.992 298.063 453.663 298.063 453.32V446.579L300.158 449.127C300.376 449.391 300.69 449.559 301.032 449.592C301.373 449.625 301.713 449.522 301.978 449.304C302.243 449.086 302.411 448.772 302.444 448.431C302.477 448.089 302.374 447.749 302.156 447.484Z" fill="#F2F2F2"/>
<path d="M457.618 253.291C454.82 253.291 452.086 252.461 449.759 250.907C447.433 249.353 445.62 247.144 444.549 244.559C443.479 241.974 443.199 239.13 443.744 236.386C444.29 233.642 445.638 231.121 447.616 229.143C449.594 227.165 452.115 225.818 454.859 225.272C457.603 224.726 460.447 225.006 463.031 226.077C465.616 227.147 467.825 228.96 469.38 231.287C470.934 233.613 471.764 236.348 471.764 239.145C471.759 242.896 470.268 246.491 467.616 249.143C464.964 251.795 461.369 253.287 457.618 253.291ZM457.618 227C455.216 227 452.868 227.712 450.871 229.047C448.873 230.381 447.316 232.278 446.397 234.498C445.478 236.717 445.237 239.159 445.706 241.515C446.175 243.871 447.331 246.035 449.03 247.734C450.729 249.432 452.893 250.589 455.249 251.058C457.605 251.526 460.047 251.286 462.266 250.367C464.485 249.447 466.382 247.891 467.717 245.893C469.051 243.896 469.764 241.548 469.764 239.145C469.76 235.925 468.479 232.838 466.202 230.561C463.925 228.284 460.838 227.004 457.618 227Z" fill="#F2F2F2"/>
<path d="M463.156 238.484L458.769 233.149C458.65 233.005 458.501 232.888 458.332 232.806C458.163 232.725 457.979 232.681 457.792 232.678C457.604 232.675 457.419 232.712 457.247 232.788C457.076 232.864 456.923 232.976 456.799 233.117L452.108 238.451C451.884 238.709 451.771 239.045 451.794 239.386C451.816 239.727 451.973 240.045 452.23 240.271C452.487 240.496 452.822 240.611 453.163 240.59C453.504 240.569 453.823 240.414 454.05 240.159L456.477 237.399V244.32C456.477 244.663 456.613 244.992 456.856 245.234C457.098 245.477 457.427 245.613 457.77 245.613C458.113 245.613 458.442 245.477 458.685 245.234C458.927 244.992 459.063 244.663 459.063 244.32V237.579L461.158 240.127C461.376 240.391 461.69 240.559 462.032 240.592C462.373 240.625 462.713 240.522 462.978 240.304C463.243 240.086 463.411 239.772 463.444 239.431C463.477 239.089 463.374 238.749 463.156 238.484Z" fill="#F2F2F2"/>
<path d="M138.618 241.291C135.82 241.291 133.086 240.461 130.759 238.907C128.433 237.353 126.62 235.144 125.549 232.559C124.479 229.974 124.199 227.13 124.744 224.386C125.29 221.642 126.637 219.121 128.616 217.143C130.594 215.165 133.115 213.818 135.859 213.272C138.602 212.726 141.447 213.006 144.031 214.077C146.616 215.147 148.825 216.96 150.38 219.287C151.934 221.613 152.764 224.348 152.764 227.145C152.759 230.896 151.268 234.491 148.616 237.143C145.964 239.795 142.368 241.287 138.618 241.291ZM138.618 215C136.216 215 133.868 215.712 131.87 217.047C129.873 218.381 128.316 220.278 127.397 222.498C126.478 224.717 126.237 227.159 126.706 229.515C127.175 231.871 128.331 234.035 130.03 235.734C131.729 237.432 133.893 238.589 136.249 239.058C138.605 239.526 141.047 239.286 143.266 238.367C145.485 237.447 147.382 235.891 148.717 233.893C150.051 231.896 150.764 229.548 150.764 227.145C150.76 223.925 149.479 220.838 147.202 218.561C144.925 216.284 141.838 215.004 138.618 215Z" fill="#F2F2F2"/>
<path d="M144.156 226.484L139.769 221.149C139.65 221.005 139.501 220.888 139.332 220.806C139.163 220.725 138.979 220.681 138.792 220.678C138.604 220.675 138.419 220.712 138.247 220.788C138.076 220.864 137.923 220.976 137.799 221.117L133.108 226.451C132.884 226.709 132.771 227.045 132.794 227.386C132.816 227.727 132.973 228.045 133.23 228.271C133.487 228.496 133.822 228.611 134.163 228.59C134.504 228.569 134.823 228.414 135.05 228.159L137.477 225.399V232.32C137.477 232.663 137.613 232.992 137.856 233.234C138.098 233.477 138.427 233.613 138.77 233.613C139.113 233.613 139.442 233.477 139.685 233.234C139.927 232.992 140.063 232.663 140.063 232.32V225.579L142.158 228.127C142.376 228.391 142.69 228.559 143.032 228.592C143.373 228.625 143.713 228.522 143.978 228.304C144.243 228.086 144.411 227.772 144.444 227.431C144.477 227.089 144.374 226.749 144.156 226.484Z" fill="#F2F2F2"/>
<path d="M251.618 68.291C248.82 68.291 246.086 67.4614 243.759 65.9071C241.433 64.3528 239.62 62.1435 238.549 59.5588C237.479 56.974 237.199 54.1298 237.744 51.3859C238.29 48.6419 239.637 46.1214 241.616 44.1431C243.594 42.1648 246.115 40.8176 248.859 40.2718C251.602 39.726 254.447 40.0061 257.031 41.0768C259.616 42.1474 261.825 43.9605 263.38 46.2867C264.934 48.6129 265.764 51.3478 265.764 54.1455C265.759 57.8958 264.268 61.4913 261.616 64.1432C258.964 66.7951 255.368 68.2868 251.618 68.291ZM251.618 42C249.216 42 246.868 42.7123 244.87 44.0469C242.873 45.3815 241.316 47.2783 240.397 49.4976C239.478 51.7169 239.237 54.159 239.706 56.515C240.175 58.871 241.331 61.0351 243.03 62.7337C244.729 64.4323 246.893 65.589 249.249 66.0577C251.605 66.5263 254.047 66.2858 256.266 65.3665C258.485 64.4473 260.382 62.8905 261.717 60.8932C263.051 58.8959 263.764 56.5477 263.764 54.1455C263.76 50.9254 262.479 47.8382 260.202 45.5613C257.925 43.2843 254.838 42.0036 251.618 42Z" fill="#F2F2F2"/>
<path d="M257.156 53.484L252.769 48.1494C252.65 48.0047 252.501 47.8876 252.332 47.8062C252.163 47.7248 251.979 47.681 251.792 47.6779C251.604 47.6748 251.419 47.7125 251.247 47.7882C251.076 47.864 250.923 47.9761 250.799 48.1168L246.108 53.4513C245.884 53.7092 245.771 54.0453 245.794 54.3862C245.816 54.7272 245.973 55.0452 246.23 55.2708C246.487 55.4965 246.822 55.6114 247.163 55.5905C247.504 55.5695 247.823 55.4145 248.05 55.1592L250.477 52.3992V59.32C250.477 59.663 250.613 59.9918 250.856 60.2343C251.098 60.4768 251.427 60.613 251.77 60.613C252.113 60.613 252.442 60.4768 252.685 60.2343C252.927 59.9918 253.063 59.663 253.063 59.32V52.5789L255.158 55.1266C255.376 55.3915 255.69 55.5589 256.032 55.5922C256.373 55.6255 256.713 55.5218 256.978 55.304C257.243 55.0862 257.411 54.772 257.444 54.4307C257.477 54.0894 257.374 53.7488 257.156 53.484Z" fill="#F2F2F2"/>
<path d="M100.618 346.291C97.8204 346.291 95.0854 345.461 92.7591 343.907C90.4328 342.353 88.6197 340.144 87.549 337.559C86.4783 334.974 86.1982 332.13 86.744 329.386C87.2898 326.642 88.637 324.121 90.6154 322.143C92.5937 320.164 95.1143 318.817 97.8583 318.271C100.602 317.726 103.447 318.006 106.031 319.076C108.616 320.147 110.825 321.96 112.38 324.286C113.934 326.613 114.764 329.348 114.764 332.146C114.759 335.896 113.268 339.491 110.616 342.143C107.964 344.795 104.368 346.287 100.618 346.291ZM100.618 320C98.216 320 95.8677 320.712 93.8703 322.046C91.8729 323.381 90.3161 325.278 89.3968 327.497C88.4775 329.716 88.2369 332.159 88.7055 334.515C89.1741 336.871 90.3308 339.035 92.0294 340.733C93.728 342.432 95.8921 343.589 98.2482 344.058C100.604 344.526 103.046 344.286 105.266 343.367C107.485 342.447 109.382 340.891 110.717 338.893C112.051 336.896 112.764 334.548 112.764 332.146C112.76 328.925 111.479 325.838 109.202 323.561C106.925 321.284 103.838 320.003 100.618 320Z" fill="white"/>
<path d="M106.156 331.484L101.769 326.149C101.65 326.005 101.501 325.888 101.332 325.806C101.163 325.725 100.979 325.681 100.792 325.678C100.604 325.675 100.419 325.712 100.247 325.788C100.076 325.864 99.923 325.976 99.7993 326.117L95.1081 331.451C94.8839 331.709 94.7708 332.045 94.7937 332.386C94.8165 332.727 94.9734 333.045 95.2299 333.271C95.4865 333.496 95.822 333.611 96.163 333.59C96.5041 333.57 96.823 333.414 97.0501 333.159L99.4772 330.399V337.32C99.4772 337.663 99.6134 337.992 99.8559 338.234C100.098 338.477 100.427 338.613 100.77 338.613C101.113 338.613 101.442 338.477 101.685 338.234C101.927 337.992 102.063 337.663 102.063 337.32V330.579L104.158 333.127C104.376 333.391 104.69 333.559 105.032 333.592C105.373 333.625 105.713 333.522 105.978 333.304C106.243 333.086 106.411 332.772 106.444 332.431C106.477 332.089 106.374 331.749 106.156 331.484Z" fill="white"/>
<path d="M406.618 109.291C403.82 109.291 401.085 108.461 398.759 106.907C396.433 105.353 394.62 103.144 393.549 100.559C392.478 97.9739 392.198 95.1297 392.744 92.3856C393.29 89.6416 394.637 87.121 396.615 85.1427C398.594 83.1644 401.114 81.8171 403.858 81.2713C406.602 80.7255 409.447 81.0057 412.031 82.0763C414.616 83.147 416.825 84.9602 418.38 87.2865C419.934 89.6127 420.764 92.3477 420.764 95.1455C420.759 98.8958 419.268 102.491 416.616 105.143C413.964 107.795 410.368 109.287 406.618 109.291ZM406.618 82.9995C404.216 82.9995 401.868 83.7118 399.87 85.0463C397.873 86.3809 396.316 88.2777 395.397 90.4971C394.477 92.7164 394.237 95.1585 394.706 97.5145C395.174 99.8706 396.331 102.035 398.029 103.733C399.728 105.432 401.892 106.589 404.248 107.058C406.604 107.526 409.046 107.286 411.266 106.367C413.485 105.447 415.382 103.891 416.717 101.893C418.051 99.896 418.764 97.5477 418.764 95.1455C418.76 91.9254 417.479 88.8381 415.202 86.5611C412.926 84.2841 409.838 83.0032 406.618 82.9995Z" fill="white"/>
<path d="M412.156 94.484L407.769 89.1494C407.65 89.0047 407.501 88.8876 407.332 88.8062C407.163 88.7248 406.979 88.681 406.792 88.6779C406.604 88.6748 406.419 88.7125 406.247 88.7882C406.076 88.864 405.923 88.9761 405.799 89.1168L401.108 94.4513C400.884 94.7092 400.771 95.0453 400.794 95.3862C400.816 95.7272 400.973 96.0452 401.23 96.2708C401.487 96.4965 401.822 96.6114 402.163 96.5905C402.504 96.5695 402.823 96.4145 403.05 96.1592L405.477 93.3992V100.32C405.477 100.663 405.613 100.992 405.856 101.234C406.098 101.477 406.427 101.613 406.77 101.613C407.113 101.613 407.442 101.477 407.685 101.234C407.927 100.992 408.063 100.663 408.063 100.32V93.5789L410.158 96.1266C410.376 96.3915 410.69 96.5589 411.032 96.5922C411.373 96.6255 411.713 96.5218 411.978 96.304C412.243 96.0862 412.411 95.772 412.444 95.4307C412.477 95.0894 412.374 94.7488 412.156 94.484Z" fill="white"/>
<path d="M795.098 448.934C793.435 446.13 786.24 449.132 784.917 446.587C783.599 444.051 790.284 440.187 794.103 431.361C794.792 429.769 799.132 419.738 795.919 416.642C789.829 410.776 761.959 434.987 752.206 427.064C750.066 425.325 748.57 421.854 742.092 416.218C739.515 413.976 737.957 412.964 736.449 413.34C734.309 413.875 734.139 416.739 731.844 422.37C728.403 430.816 726.367 430.306 724.362 437.044C722.874 442.046 723.214 444.954 721.462 445.52C718.984 446.322 716.702 441.017 713.561 441.492C710.356 441.977 708.418 448.154 707.806 452.779C706.657 461.458 709.845 467.186 711.611 473.208C713.531 479.753 714.671 489.705 710.237 503.795L666.354 627.436C676.042 602.066 704.093 532.518 715.881 506.673C719.283 499.212 723.041 491.645 730.755 488.658C738.182 485.782 748.383 487.499 761.387 484.366C762.906 484.001 767.121 482.928 767.651 480.449C768.09 478.4 765.611 477.256 765.991 475.336C766.502 472.762 771.377 472.73 777.368 469.76C781.592 467.665 784.224 465.174 786.487 463.032C787.17 462.386 797.312 452.667 795.098 448.934Z" fill="#CACACA"/>
<path d="M622.448 514.024C620.592 514.031 619.99 518.429 618.359 518.344C616.734 518.259 616.766 513.863 613.536 509.442C612.953 508.644 609.282 503.62 606.836 504.304C602.199 505.6 606.041 526.265 599.338 528.765C597.868 529.314 595.732 529.047 591.097 530.6C589.253 531.218 588.307 531.691 588.056 532.54C587.701 533.744 589.058 534.654 591.16 537.405C594.312 541.531 593.474 542.382 596.203 545.311C598.228 547.484 599.754 548.157 599.526 549.18C599.205 550.628 595.943 550.217 595.269 551.895C594.583 553.608 597.055 556.342 599.149 557.977C603.077 561.045 606.808 561.133 610.273 562.003C614.039 562.949 619.253 565.262 624.889 571.503L672.911 628.716C663.255 616.641 637.214 582.806 627.93 569.564C625.25 565.741 622.62 561.713 623.38 557.065C624.112 552.59 627.897 548.079 630.112 540.793C630.371 539.942 631.06 537.564 629.997 536.588C629.117 535.782 627.841 536.668 627.008 535.927C625.892 534.934 627.283 532.532 627.554 528.735C627.745 526.057 627.281 524.047 626.883 522.318C626.763 521.797 624.919 514.015 622.448 514.024Z" fill="#CACACA"/>
<path d="M659.481 522.337L658.363 512.353L658.874 511.597C661.238 508.097 662.443 504.679 662.458 501.435C662.46 500.919 662.436 500.403 662.412 499.877C662.316 497.795 662.195 495.206 663.545 492.189C664.302 490.506 666.428 486.611 669.624 487.093C670.484 487.214 671.135 487.609 671.629 488.072C671.702 487.956 671.776 487.84 671.856 487.715C672.851 486.196 673.639 485.546 674.399 484.919C674.982 484.437 675.585 483.94 676.529 482.764C676.944 482.248 677.267 481.795 677.539 481.414C678.366 480.262 679.446 478.888 681.35 478.912C683.384 479.009 684.45 480.691 685.156 481.805C686.417 483.791 686.988 485.223 687.366 486.172C687.504 486.519 687.66 486.91 687.74 487.03C688.396 487.994 693.725 487.093 695.733 486.765C700.242 486.013 704.145 485.362 705.752 488.207C706.905 490.241 706.049 492.931 703.132 496.416C702.224 497.501 701.257 498.325 700.399 498.971C701.11 499.395 701.746 500.046 702.004 501.068C702.612 503.488 700.532 505.913 695.824 508.285C694.655 508.878 693.081 509.668 690.876 510.049C689.837 510.228 688.902 510.271 688.101 510.295C688.085 510.758 687.976 511.259 687.694 511.775C686.867 513.293 685.146 514.017 682.553 513.843C679.699 513.694 677.349 513.149 675.276 512.672C673.466 512.257 671.906 511.905 670.682 511.987C668.411 512.17 666.661 513.988 664.608 516.345L659.481 522.337Z" fill="#CACACA"/>
<path d="M664.669 462.894L655.296 466.509L654.434 466.206C650.449 464.807 646.837 464.508 643.695 465.317C643.196 465.445 642.703 465.6 642.201 465.756C640.211 466.378 637.737 467.151 634.476 466.611C632.656 466.305 628.349 465.237 628.005 462.023C627.903 461.16 628.121 460.43 628.443 459.835C628.313 459.794 628.182 459.751 628.04 459.706C626.319 459.129 625.49 458.531 624.691 457.956C624.077 457.514 623.443 457.057 622.066 456.441C621.462 456.171 620.942 455.974 620.504 455.807C619.18 455.299 617.577 454.603 617.118 452.755C616.695 450.763 618.052 449.306 618.95 448.34C620.551 446.617 621.791 445.701 622.614 445.094C622.915 444.873 623.253 444.623 623.349 444.515C624.116 443.637 621.892 438.71 621.065 436.851C619.194 432.68 617.575 429.07 619.918 426.793C621.594 425.163 624.413 425.308 628.524 427.245C629.804 427.849 630.846 428.575 631.689 429.241C631.919 428.446 632.387 427.665 633.31 427.157C635.497 425.955 638.37 427.352 641.858 431.304C642.728 432.285 643.892 433.607 644.82 435.643C645.256 436.603 645.535 437.496 645.761 438.264C646.213 438.163 646.726 438.141 647.296 438.283C648.975 438.698 650.111 440.179 650.601 442.732C651.18 445.53 651.249 447.941 651.314 450.068C651.372 451.924 651.427 453.522 651.817 454.685C652.57 456.835 654.772 458.067 657.573 459.455L664.669 462.894Z" fill="#CACACA"/>
<path d="M659.481 433.482L658.363 423.499L658.874 422.742C661.238 419.242 662.443 415.824 662.458 412.58C662.46 412.064 662.436 411.548 662.412 411.023C662.316 408.94 662.195 406.351 663.545 403.334C664.302 401.651 666.428 397.756 669.624 398.238C670.484 398.359 671.135 398.754 671.629 399.217C671.702 399.101 671.776 398.985 671.856 398.86C672.851 397.341 673.639 396.691 674.399 396.064C674.982 395.582 675.585 395.085 676.529 393.909C676.944 393.393 677.267 392.94 677.539 392.559C678.366 391.407 679.446 390.033 681.35 390.057C683.384 390.154 684.45 391.836 685.156 392.95C686.417 394.936 686.988 396.368 687.366 397.317C687.504 397.664 687.66 398.055 687.74 398.175C688.396 399.14 693.725 398.238 695.733 397.91C700.242 397.158 704.145 396.508 705.752 399.352C706.905 401.386 706.049 404.076 703.132 407.561C702.224 408.646 701.257 409.47 700.399 410.116C701.11 410.541 701.746 411.191 702.004 412.213C702.612 414.633 700.532 417.058 695.824 419.43C694.655 420.023 693.081 420.813 690.876 421.194C689.837 421.373 688.902 421.416 688.101 421.44C688.085 421.903 687.976 422.404 687.694 422.92C686.867 424.439 685.146 425.162 682.553 424.988C679.699 424.839 677.349 424.294 675.276 423.817C673.466 423.402 671.906 423.05 670.682 423.132C668.411 423.315 666.661 425.133 664.608 427.49L659.481 433.482Z" fill="#CACACA"/>
<path d="M669.696 627.274L667.604 625.963L665.165 626.242C665.126 626.016 664.993 625.495 664.793 624.68C663.702 620.216 660.373 606.632 657.596 585.237C655.658 570.303 654.562 554.949 654.335 539.595C654.108 524.217 654.836 512.575 655.42 503.218C655.861 496.161 656.396 489.441 656.921 482.894C658.319 465.405 659.638 448.884 658.657 430.595C658.44 426.511 657.984 418.013 653.019 408.969C650.139 403.724 646.171 399.067 641.225 395.134L644.301 391.268C649.76 395.616 654.149 400.774 657.348 406.597C662.853 416.624 663.35 425.885 663.588 430.334C664.586 448.947 663.253 465.627 661.841 483.285C661.32 489.807 660.785 496.498 660.346 503.527C659.768 512.797 659.047 524.338 659.271 539.518C659.493 554.689 660.578 569.855 662.489 584.601C665.232 605.725 668.513 619.108 669.59 623.504C670.164 625.852 670.284 626.343 669.696 627.274Z" fill="#CACACA"/>
<path d="M632.172 402.977C631.969 402.977 631.764 402.972 631.557 402.958C627.353 402.731 623.461 400.215 619.985 395.481C618.356 393.254 617.522 390.713 615.859 385.647C615.601 384.866 614.347 380.903 613.586 375.451C613.087 371.888 613.149 370.399 613.856 369.083C614.639 367.617 615.907 366.595 617.334 365.906C617.271 365.433 617.322 364.947 617.527 364.45C618.368 362.392 620.605 362.662 621.815 362.792C622.427 362.869 623.191 362.97 624.015 362.927C625.312 362.864 626.009 362.478 627.064 361.9C628.074 361.345 629.33 360.656 631.193 360.275C634.867 359.509 637.945 360.55 638.959 360.892C644.298 362.671 646.93 366.822 649.977 371.628C650.584 372.592 652.669 376.102 654.046 380.913C655.039 384.384 654.899 385.926 654.6 387.073C653.993 389.431 652.558 390.781 648.916 393.76C645.113 396.879 643.204 398.441 641.565 399.39C637.749 401.593 635.353 402.977 632.172 402.977Z" fill="#CACACA"/>
<rect x="40" y="4" width="157.844" height="30" rx="3" fill="white"/>
<rect x="40.5" y="4.5" width="156.844" height="29" rx="2.5" stroke="black" stroke-opacity="0.14902"/>
<path d="M50.625 19.5469V16H51.5469V22H50.625V20.9844H50.5625C50.4219 21.2891 50.2031 21.5482 49.9063 21.7617C49.6094 21.9727 49.2344 22.0781 48.7812 22.0781C48.4062 22.0781 48.0729 21.9961 47.7813 21.832C47.4896 21.6654 47.2604 21.4154 47.0938 21.082C46.9271 20.7461 46.8438 20.3229 46.8438 19.8125V16H47.7656V19.75C47.7656 20.1875 47.888 20.5365 48.1328 20.7969C48.3802 21.0573 48.6953 21.1875 49.0781 21.1875C49.3073 21.1875 49.5404 21.1289 49.7773 21.0117C50.0169 20.8945 50.2174 20.7148 50.3789 20.4727C50.543 20.2305 50.625 19.9219 50.625 19.5469ZM54.1572 18.3906V22H53.2354V16H54.126V16.9375H54.2041C54.3447 16.6328 54.5583 16.388 54.8447 16.2031C55.1312 16.0156 55.501 15.9219 55.9541 15.9219C56.3604 15.9219 56.7158 16.0052 57.0205 16.1719C57.3252 16.3359 57.5622 16.5859 57.7314 16.9219C57.9007 17.2552 57.9854 17.6771 57.9854 18.1875V22H57.0635V18.25C57.0635 17.7786 56.9411 17.4115 56.6963 17.1484C56.4515 16.8828 56.1156 16.75 55.6885 16.75C55.3942 16.75 55.1312 16.8138 54.8994 16.9414C54.6702 17.069 54.4893 17.2552 54.3564 17.5C54.2236 17.7448 54.1572 18.0417 54.1572 18.3906ZM61.9355 22.125C61.4355 22.125 60.9941 21.9987 60.6113 21.7461C60.2285 21.4909 59.929 21.1315 59.7129 20.668C59.4967 20.2018 59.3887 19.651 59.3887 19.0156C59.3887 18.3854 59.4967 17.8385 59.7129 17.375C59.929 16.9115 60.2298 16.5534 60.6152 16.3008C61.0007 16.0482 61.446 15.9219 61.9512 15.9219C62.3418 15.9219 62.6504 15.987 62.877 16.1172C63.1061 16.2448 63.2806 16.3906 63.4004 16.5547C63.5228 16.7161 63.6178 16.849 63.6855 16.9531H63.7637V14H64.6855V22H63.7949V21.0781H63.6855C63.6178 21.1875 63.5215 21.3255 63.3965 21.4922C63.2715 21.6562 63.0931 21.8034 62.8613 21.9336C62.6296 22.0612 62.321 22.125 61.9355 22.125ZM62.0605 21.2969C62.4303 21.2969 62.7428 21.2005 62.998 21.0078C63.2533 20.8125 63.4473 20.543 63.5801 20.1992C63.7129 19.8529 63.7793 19.4531 63.7793 19C63.7793 18.5521 63.7142 18.1602 63.584 17.8242C63.4538 17.4857 63.2611 17.2227 63.0059 17.0352C62.7507 16.8451 62.4355 16.75 62.0605 16.75C61.6699 16.75 61.3444 16.8503 61.084 17.0508C60.8262 17.2487 60.6322 17.5182 60.502 17.8594C60.3743 18.1979 60.3105 18.5781 60.3105 19C60.3105 19.4271 60.3757 19.8151 60.5059 20.1641C60.6387 20.5104 60.834 20.7865 61.0918 20.9922C61.3522 21.1953 61.6751 21.2969 62.0605 21.2969ZM66.502 22V16H67.3926V16.9062H67.4551C67.5645 16.6094 67.7624 16.3685 68.0488 16.1836C68.3353 15.9987 68.6582 15.9062 69.0176 15.9062C69.0853 15.9062 69.1699 15.9076 69.2715 15.9102C69.373 15.9128 69.4499 15.9167 69.502 15.9219V16.8594C69.4707 16.8516 69.3991 16.8398 69.2871 16.8242C69.1777 16.806 69.0618 16.7969 68.9395 16.7969C68.6478 16.7969 68.3874 16.8581 68.1582 16.9805C67.9316 17.1003 67.752 17.2669 67.6191 17.4805C67.4889 17.6914 67.4238 17.9323 67.4238 18.2031V22H66.502ZM72.3604 22.1406C71.9801 22.1406 71.6351 22.069 71.3252 21.9258C71.0153 21.7799 70.7692 21.5703 70.5869 21.2969C70.4046 21.0208 70.3135 20.6875 70.3135 20.2969C70.3135 19.9531 70.3812 19.6745 70.5166 19.4609C70.652 19.2448 70.833 19.0755 71.0596 18.9531C71.2861 18.8307 71.5361 18.7396 71.8096 18.6797C72.0856 18.6172 72.363 18.5677 72.6416 18.5313C73.0062 18.4844 73.3018 18.4492 73.5283 18.4258C73.7575 18.3997 73.9242 18.3568 74.0283 18.2969C74.1351 18.237 74.1885 18.1328 74.1885 17.9844V17.9531C74.1885 17.5677 74.083 17.2682 73.8721 17.0547C73.6637 16.8411 73.3473 16.7344 72.9229 16.7344C72.4827 16.7344 72.1377 16.8307 71.8877 17.0234C71.6377 17.2161 71.4619 17.4219 71.3604 17.6406L70.4854 17.3281C70.6416 16.9635 70.8499 16.6797 71.1104 16.4766C71.3734 16.2708 71.6598 16.1276 71.9697 16.0469C72.2822 15.9635 72.5895 15.9219 72.8916 15.9219C73.0843 15.9219 73.3057 15.9453 73.5557 15.9922C73.8083 16.0365 74.0518 16.1289 74.2861 16.2695C74.5231 16.4102 74.7197 16.6224 74.876 16.9062C75.0322 17.1901 75.1104 17.5703 75.1104 18.0469V22H74.1885V21.1875H74.1416C74.0791 21.3177 73.9749 21.457 73.8291 21.6055C73.6833 21.7539 73.4893 21.8802 73.2471 21.9844C73.0049 22.0885 72.7093 22.1406 72.3604 22.1406ZM72.501 21.3125C72.8656 21.3125 73.1729 21.2409 73.4229 21.0977C73.6755 20.9544 73.8656 20.7695 73.9932 20.543C74.1234 20.3164 74.1885 20.0781 74.1885 19.8281V18.9844C74.1494 19.0312 74.0635 19.0742 73.9307 19.1133C73.8005 19.1497 73.6494 19.1823 73.4775 19.2109C73.3083 19.237 73.1429 19.2604 72.9814 19.2812C72.8226 19.2995 72.6937 19.3151 72.5947 19.3281C72.3551 19.3594 72.1312 19.4102 71.9229 19.4805C71.7171 19.5482 71.5505 19.651 71.4229 19.7891C71.2979 19.9245 71.2354 20.1094 71.2354 20.3437C71.2354 20.6641 71.3538 20.9062 71.5908 21.0703C71.8304 21.2318 72.1338 21.3125 72.501 21.3125ZM78.1523 22L76.3242 16H77.293L78.5898 20.5938H78.6523L79.9336 16H80.918L82.1836 20.5781H82.2461L83.543 16H84.5117L82.6836 22H81.7773L80.4648 17.3906H80.3711L79.0586 22H78.1523ZM89.8711 22V22.8594H84.8711V22H89.8711ZM93.126 24.375C92.6807 24.375 92.2979 24.3177 91.9775 24.2031C91.6572 24.0911 91.3903 23.9427 91.1768 23.7578C90.9658 23.5755 90.7979 23.3802 90.6729 23.1719L91.4072 22.6563C91.4906 22.7656 91.596 22.8906 91.7236 23.0312C91.8512 23.1745 92.0257 23.2982 92.2471 23.4023C92.471 23.5091 92.764 23.5625 93.126 23.5625C93.6104 23.5625 94.0101 23.4453 94.3252 23.2109C94.6403 22.9766 94.7979 22.6094 94.7979 22.1094V20.8906H94.7197C94.652 21 94.5557 21.1354 94.4307 21.2969C94.3083 21.4557 94.1312 21.5977 93.8994 21.7227C93.6702 21.8451 93.3604 21.9062 92.9697 21.9062C92.4854 21.9062 92.0505 21.7917 91.665 21.5625C91.2822 21.3333 90.9788 21 90.7549 20.5625C90.5335 20.125 90.4229 19.5937 90.4229 18.9687C90.4229 18.3542 90.5309 17.819 90.7471 17.3633C90.9632 16.9049 91.264 16.5508 91.6494 16.3008C92.0348 16.0482 92.4801 15.9219 92.9854 15.9219C93.376 15.9219 93.6859 15.987 93.915 16.1172C94.1468 16.2448 94.3239 16.3906 94.4463 16.5547C94.5713 16.7161 94.6676 16.849 94.7354 16.9531H94.8291V16H95.7197V22.1719C95.7197 22.6875 95.6025 23.1068 95.3682 23.4297C95.1364 23.7552 94.8239 23.9935 94.4307 24.1445C94.04 24.2982 93.6051 24.375 93.126 24.375ZM93.0947 21.0781C93.4645 21.0781 93.777 20.9935 94.0322 20.8242C94.2874 20.6549 94.4814 20.4115 94.6143 20.0938C94.7471 19.776 94.8135 19.3958 94.8135 18.9531C94.8135 18.5208 94.7484 18.1393 94.6182 17.8086C94.488 17.4779 94.2952 17.2187 94.04 17.0312C93.7848 16.8437 93.4697 16.75 93.0947 16.75C92.7041 16.75 92.3786 16.849 92.1182 17.0469C91.8604 17.2448 91.6663 17.5104 91.5361 17.8438C91.4085 18.1771 91.3447 18.5469 91.3447 18.9531C91.3447 19.3698 91.4098 19.7383 91.54 20.0586C91.6729 20.3763 91.8682 20.6263 92.126 20.8086C92.3864 20.9883 92.7093 21.0781 93.0947 21.0781ZM99.8447 22.125C99.3031 22.125 98.8278 21.9961 98.4189 21.7383C98.0127 21.4805 97.695 21.1198 97.4658 20.6562C97.2393 20.1927 97.126 19.651 97.126 19.0312C97.126 18.4062 97.2393 17.8607 97.4658 17.3945C97.695 16.9284 98.0127 16.5664 98.4189 16.3086C98.8278 16.0508 99.3031 15.9219 99.8447 15.9219C100.386 15.9219 100.86 16.0508 101.267 16.3086C101.675 16.5664 101.993 16.9284 102.22 17.3945C102.449 17.8607 102.563 18.4062 102.563 19.0312C102.563 19.651 102.449 20.1927 102.22 20.6562C101.993 21.1198 101.675 21.4805 101.267 21.7383C100.86 21.9961 100.386 22.125 99.8447 22.125ZM99.8447 21.2969C100.256 21.2969 100.595 21.1914 100.86 20.9805C101.126 20.7695 101.323 20.4922 101.45 20.1484C101.578 19.8047 101.642 19.4323 101.642 19.0312C101.642 18.6302 101.578 18.2565 101.45 17.9102C101.323 17.5638 101.126 17.2839 100.86 17.0703C100.595 16.8568 100.256 16.75 99.8447 16.75C99.4333 16.75 99.0947 16.8568 98.8291 17.0703C98.5635 17.2839 98.3669 17.5638 98.2393 17.9102C98.1117 18.2565 98.0479 18.6302 98.0479 19.0312C98.0479 19.4323 98.1117 19.8047 98.2393 20.1484C98.3669 20.4922 98.5635 20.7695 98.8291 20.9805C99.0947 21.1914 99.4333 21.2969 99.8447 21.2969ZM103.971 22V16H104.893V22H103.971ZM104.439 15C104.26 15 104.105 14.9388 103.975 14.8164C103.847 14.694 103.783 14.5469 103.783 14.375C103.783 14.2031 103.847 14.056 103.975 13.9336C104.105 13.8112 104.26 13.75 104.439 13.75C104.619 13.75 104.773 13.8112 104.9 13.9336C105.031 14.056 105.096 14.2031 105.096 14.375C105.096 14.5469 105.031 14.694 104.9 14.8164C104.773 14.9388 104.619 15 104.439 15ZM107.503 18.3906V22H106.581V16H107.472V16.9375H107.55C107.69 16.6328 107.904 16.388 108.19 16.2031C108.477 16.0156 108.847 15.9219 109.3 15.9219C109.706 15.9219 110.062 16.0052 110.366 16.1719C110.671 16.3359 110.908 16.5859 111.077 16.9219C111.246 17.2552 111.331 17.6771 111.331 18.1875V22H110.409V18.25C110.409 17.7786 110.287 17.4115 110.042 17.1484C109.797 16.8828 109.461 16.75 109.034 16.75C108.74 16.75 108.477 16.8138 108.245 16.9414C108.016 17.069 107.835 17.2552 107.702 17.5C107.569 17.7448 107.503 18.0417 107.503 18.3906ZM115.438 24.375C114.992 24.375 114.609 24.3177 114.289 24.2031C113.969 24.0911 113.702 23.9427 113.488 23.7578C113.277 23.5755 113.109 23.3802 112.984 23.1719L113.719 22.6563C113.802 22.7656 113.908 22.8906 114.035 23.0312C114.163 23.1745 114.337 23.2982 114.559 23.4023C114.783 23.5091 115.076 23.5625 115.438 23.5625C115.922 23.5625 116.322 23.4453 116.637 23.2109C116.952 22.9766 117.109 22.6094 117.109 22.1094V20.8906H117.031C116.964 21 116.867 21.1354 116.742 21.2969C116.62 21.4557 116.443 21.5977 116.211 21.7227C115.982 21.8451 115.672 21.9062 115.281 21.9062C114.797 21.9062 114.362 21.7917 113.977 21.5625C113.594 21.3333 113.29 21 113.066 20.5625C112.845 20.125 112.734 19.5937 112.734 18.9687C112.734 18.3542 112.842 17.819 113.059 17.3633C113.275 16.9049 113.576 16.5508 113.961 16.3008C114.346 16.0482 114.792 15.9219 115.297 15.9219C115.688 15.9219 115.997 15.987 116.227 16.1172C116.458 16.2448 116.635 16.3906 116.758 16.5547C116.883 16.7161 116.979 16.849 117.047 16.9531H117.141V16H118.031V22.1719C118.031 22.6875 117.914 23.1068 117.68 23.4297C117.448 23.7552 117.135 23.9935 116.742 24.1445C116.352 24.2982 115.917 24.375 115.438 24.375ZM115.406 21.0781C115.776 21.0781 116.089 20.9935 116.344 20.8242C116.599 20.6549 116.793 20.4115 116.926 20.0938C117.059 19.776 117.125 19.3958 117.125 18.9531C117.125 18.5208 117.06 18.1393 116.93 17.8086C116.799 17.4779 116.607 17.2187 116.352 17.0312C116.096 16.8437 115.781 16.75 115.406 16.75C115.016 16.75 114.69 16.849 114.43 17.0469C114.172 17.2448 113.978 17.5104 113.848 17.8438C113.72 18.1771 113.656 18.5469 113.656 18.9531C113.656 19.3698 113.721 19.7383 113.852 20.0586C113.984 20.3763 114.18 20.6263 114.438 20.8086C114.698 20.9883 115.021 21.0781 115.406 21.0781ZM124.235 22V22.8594H119.235V22H124.235ZM128.85 19.5469V16H129.771V22H128.85V20.9844H128.787C128.646 21.2891 128.428 21.5482 128.131 21.7617C127.834 21.9727 127.459 22.0781 127.006 22.0781C126.631 22.0781 126.298 21.9961 126.006 21.832C125.714 21.6654 125.485 21.4154 125.318 21.082C125.152 20.7461 125.068 20.3229 125.068 19.8125V16H125.99V19.75C125.99 20.1875 126.113 20.5365 126.357 20.7969C126.605 21.0573 126.92 21.1875 127.303 21.1875C127.532 21.1875 127.765 21.1289 128.002 21.0117C128.242 20.8945 128.442 20.7148 128.604 20.4727C128.768 20.2305 128.85 19.9219 128.85 19.5469ZM131.46 24.25V16H132.351V16.9531H132.46C132.528 16.849 132.621 16.7161 132.741 16.5547C132.864 16.3906 133.038 16.2448 133.265 16.1172C133.494 15.987 133.804 15.9219 134.194 15.9219C134.7 15.9219 135.145 16.0482 135.53 16.3008C135.916 16.5534 136.216 16.9115 136.433 17.375C136.649 17.8385 136.757 18.3854 136.757 19.0156C136.757 19.651 136.649 20.2018 136.433 20.668C136.216 21.1315 135.917 21.4909 135.534 21.7461C135.151 21.9987 134.71 22.125 134.21 22.125C133.825 22.125 133.516 22.0612 133.284 21.9336C133.052 21.8034 132.874 21.6562 132.749 21.4922C132.624 21.3255 132.528 21.1875 132.46 21.0781H132.382V24.25H131.46ZM132.366 19C132.366 19.4531 132.433 19.8529 132.565 20.1992C132.698 20.543 132.892 20.8125 133.147 21.0078C133.403 21.2005 133.715 21.2969 134.085 21.2969C134.47 21.2969 134.792 21.1953 135.05 20.9922C135.31 20.7865 135.506 20.5104 135.636 20.1641C135.769 19.8151 135.835 19.4271 135.835 19C135.835 18.5781 135.77 18.1979 135.64 17.8594C135.512 17.5182 135.318 17.2487 135.058 17.0508C134.8 16.8503 134.476 16.75 134.085 16.75C133.71 16.75 133.395 16.8451 133.14 17.0352C132.884 17.2227 132.692 17.4857 132.562 17.8242C132.431 18.1602 132.366 18.5521 132.366 19ZM142.304 22V22.8594H137.304V22H142.304ZM143.642 22V16H144.532V16.9062H144.595C144.704 16.6094 144.902 16.3685 145.188 16.1836C145.475 15.9987 145.798 15.9062 146.157 15.9062C146.225 15.9062 146.31 15.9076 146.411 15.9102C146.513 15.9128 146.59 15.9167 146.642 15.9219V16.8594C146.61 16.8516 146.539 16.8398 146.427 16.8242C146.317 16.806 146.201 16.7969 146.079 16.7969C145.787 16.7969 145.527 16.8581 145.298 16.9805C145.071 17.1003 144.892 17.2669 144.759 17.4805C144.629 17.6914 144.563 17.9323 144.563 18.2031V22H143.642ZM150.067 22.125C149.489 22.125 148.991 21.9974 148.571 21.7422C148.155 21.4844 147.833 21.125 147.606 20.6641C147.382 20.2005 147.271 19.6615 147.271 19.0469C147.271 18.4323 147.382 17.8906 147.606 17.4219C147.833 16.9505 148.148 16.5833 148.552 16.3203C148.958 16.0547 149.432 15.9219 149.974 15.9219C150.286 15.9219 150.595 15.974 150.899 16.0781C151.204 16.1823 151.481 16.3516 151.731 16.5859C151.981 16.8177 152.181 17.125 152.329 17.5078C152.478 17.8906 152.552 18.362 152.552 18.9219V19.3125H147.927V18.5156H151.614C151.614 18.1771 151.547 17.875 151.411 17.6094C151.278 17.3437 151.088 17.1341 150.841 16.9805C150.596 16.8268 150.307 16.75 149.974 16.75C149.606 16.75 149.289 16.8411 149.021 17.0234C148.755 17.2031 148.55 17.4375 148.407 17.7266C148.264 18.0156 148.192 18.3255 148.192 18.6562V19.1875C148.192 19.6406 148.271 20.0247 148.427 20.3398C148.586 20.6523 148.806 20.8906 149.087 21.0547C149.368 21.2161 149.695 21.2969 150.067 21.2969C150.31 21.2969 150.528 21.263 150.724 21.1953C150.922 21.125 151.092 21.0208 151.235 20.8828C151.379 20.7422 151.489 20.5677 151.567 20.3594L152.458 20.6094C152.364 20.9115 152.207 21.1771 151.985 21.4062C151.764 21.6328 151.491 21.8099 151.165 21.9375C150.84 22.0625 150.474 22.125 150.067 22.125ZM158.095 22V22.8594H153.095V22H158.095ZM160.97 22.1094C160.433 22.1094 159.959 22.0143 159.548 21.8242C159.139 21.6315 158.82 21.3672 158.591 21.0312C158.362 20.6927 158.248 20.3073 158.251 19.875C158.248 19.5365 158.315 19.224 158.45 18.9375C158.586 18.6484 158.771 18.4076 159.005 18.2148C159.242 18.0195 159.506 17.8958 159.798 17.8438V17.7969C159.415 17.6979 159.11 17.4831 158.884 17.1523C158.657 16.819 158.545 16.4401 158.548 16.0156C158.545 15.6094 158.648 15.2461 158.856 14.9258C159.065 14.6055 159.351 14.3529 159.716 14.168C160.083 13.9831 160.501 13.8906 160.97 13.8906C161.433 13.8906 161.847 13.9831 162.212 14.168C162.576 14.3529 162.863 14.6055 163.071 14.9258C163.282 15.2461 163.389 15.6094 163.392 16.0156C163.389 16.4401 163.273 16.819 163.044 17.1523C162.817 17.4831 162.517 17.6979 162.142 17.7969V17.8438C162.431 17.8958 162.691 18.0195 162.923 18.2148C163.155 18.4076 163.34 18.6484 163.478 18.9375C163.616 19.224 163.686 19.5365 163.688 19.875C163.686 20.3073 163.569 20.6927 163.337 21.0312C163.108 21.3672 162.789 21.6315 162.38 21.8242C161.974 22.0143 161.504 22.1094 160.97 22.1094ZM160.97 21.25C161.332 21.25 161.644 21.1914 161.907 21.0742C162.17 20.957 162.373 20.7917 162.517 20.5781C162.66 20.3646 162.733 20.1146 162.735 19.8281C162.733 19.526 162.655 19.2591 162.501 19.0273C162.347 18.7956 162.138 18.6133 161.872 18.4805C161.609 18.3477 161.308 18.2812 160.97 18.2812C160.629 18.2812 160.324 18.3477 160.056 18.4805C159.79 18.6133 159.58 18.7956 159.427 19.0273C159.276 19.2591 159.201 19.526 159.204 19.8281C159.201 20.1146 159.271 20.3646 159.411 20.5781C159.554 20.7917 159.759 20.957 160.024 21.0742C160.29 21.1914 160.605 21.25 160.97 21.25ZM160.97 17.4531C161.256 17.4531 161.51 17.3958 161.731 17.2812C161.955 17.1667 162.131 17.0065 162.259 16.8008C162.386 16.5951 162.451 16.3542 162.454 16.0781C162.451 15.8073 162.388 15.5716 162.263 15.3711C162.138 15.168 161.965 15.0117 161.743 14.9023C161.522 14.7904 161.264 14.7344 160.97 14.7344C160.67 14.7344 160.409 14.7904 160.185 14.9023C159.961 15.0117 159.787 15.168 159.665 15.3711C159.543 15.5716 159.483 15.8073 159.485 16.0781C159.483 16.3542 159.544 16.5951 159.669 16.8008C159.797 17.0065 159.972 17.1667 160.196 17.2812C160.42 17.3958 160.678 17.4531 160.97 17.4531ZM167.842 22.1094C167.514 22.1042 167.186 22.0417 166.857 21.9219C166.529 21.8021 166.23 21.6003 165.959 21.3164C165.688 21.0299 165.471 20.6432 165.307 20.1562C165.143 19.6667 165.061 19.0521 165.061 18.3125C165.061 17.6042 165.127 16.9766 165.26 16.4297C165.393 15.8802 165.585 15.418 165.838 15.043C166.09 14.6654 166.395 14.3789 166.752 14.1836C167.111 13.9883 167.516 13.8906 167.967 13.8906C168.415 13.8906 168.813 13.9805 169.162 14.1602C169.514 14.3372 169.8 14.5846 170.021 14.9023C170.243 15.2201 170.386 15.5859 170.451 16H169.498C169.41 15.6406 169.238 15.3424 168.982 15.1055C168.727 14.8685 168.389 14.75 167.967 14.75C167.347 14.75 166.859 15.0195 166.502 15.5586C166.148 16.0977 165.969 16.8542 165.967 17.8281H166.029C166.175 17.6068 166.348 17.418 166.549 17.2617C166.752 17.1029 166.976 16.9805 167.221 16.8945C167.465 16.8086 167.725 16.7656 167.998 16.7656C168.456 16.7656 168.876 16.8802 169.256 17.1094C169.636 17.3359 169.941 17.6497 170.17 18.0508C170.399 18.4492 170.514 18.9062 170.514 19.4219C170.514 19.9167 170.403 20.3698 170.182 20.7812C169.96 21.1901 169.649 21.5156 169.248 21.7578C168.85 21.9974 168.381 22.1146 167.842 22.1094ZM167.842 21.25C168.17 21.25 168.464 21.168 168.725 21.0039C168.988 20.8398 169.195 20.6198 169.346 20.3437C169.499 20.0677 169.576 19.7604 169.576 19.4219C169.576 19.0911 169.502 18.7904 169.354 18.5195C169.208 18.2461 169.006 18.0286 168.748 17.8672C168.493 17.7057 168.201 17.625 167.873 17.625C167.626 17.625 167.395 17.6745 167.182 17.7734C166.968 17.8698 166.781 18.0026 166.619 18.1719C166.46 18.3411 166.335 18.5352 166.244 18.7539C166.153 18.9701 166.107 19.1979 166.107 19.4375C166.107 19.7552 166.182 20.0521 166.33 20.3281C166.481 20.6042 166.687 20.8268 166.947 20.9961C167.21 21.1654 167.508 21.25 167.842 21.25ZM172.925 19.8125L172.909 18.6719H173.097L175.722 16H176.862L174.065 18.8281H173.987L172.925 19.8125ZM172.065 22V14H172.987V22H172.065ZM175.878 22L173.534 19.0312L174.19 18.3906L177.05 22H175.878ZM180.224 24.375C179.778 24.375 179.396 24.3177 179.075 24.2031C178.755 24.0911 178.488 23.9427 178.274 23.7578C178.063 23.5755 177.896 23.3802 177.771 23.1719L178.505 22.6563C178.588 22.7656 178.694 22.8906 178.821 23.0312C178.949 23.1745 179.123 23.2982 179.345 23.4023C179.569 23.5091 179.862 23.5625 180.224 23.5625C180.708 23.5625 181.108 23.4453 181.423 23.2109C181.738 22.9766 181.896 22.6094 181.896 22.1094V20.8906H181.817C181.75 21 181.653 21.1354 181.528 21.2969C181.406 21.4557 181.229 21.5977 180.997 21.7227C180.768 21.8451 180.458 21.9062 180.067 21.9062C179.583 21.9062 179.148 21.7917 178.763 21.5625C178.38 21.3333 178.076 21 177.853 20.5625C177.631 20.125 177.521 19.5937 177.521 18.9687C177.521 18.3542 177.629 17.819 177.845 17.3633C178.061 16.9049 178.362 16.5508 178.747 16.3008C179.132 16.0482 179.578 15.9219 180.083 15.9219C180.474 15.9219 180.784 15.987 181.013 16.1172C181.244 16.2448 181.422 16.3906 181.544 16.5547C181.669 16.7161 181.765 16.849 181.833 16.9531H181.927V16H182.817V22.1719C182.817 22.6875 182.7 23.1068 182.466 23.4297C182.234 23.7552 181.922 23.9935 181.528 24.1445C181.138 24.2982 180.703 24.375 180.224 24.375ZM180.192 21.0781C180.562 21.0781 180.875 20.9935 181.13 20.8242C181.385 20.6549 181.579 20.4115 181.712 20.0938C181.845 19.776 181.911 19.3958 181.911 18.9531C181.911 18.5208 181.846 18.1393 181.716 17.8086C181.586 17.4779 181.393 17.2187 181.138 17.0312C180.882 16.8437 180.567 16.75 180.192 16.75C179.802 16.75 179.476 16.849 179.216 17.0469C178.958 17.2448 178.764 17.5104 178.634 17.8438C178.506 18.1771 178.442 18.5469 178.442 18.9531C178.442 19.3698 178.507 19.7383 178.638 20.0586C178.771 20.3763 178.966 20.6263 179.224 20.8086C179.484 20.9883 179.807 21.0781 180.192 21.0781ZM190.396 14V22H189.427V15.0156H189.38L187.427 16.3125V15.3281L189.427 14H190.396Z" fill="black"/>
</svg>
